<svg id="SvgjsSvg1000" xmlns="http://www.w3.org/2000/svg" version="1.1" xmlns:xlink="http://www.w3.org/1999/xlink" xmlns:svgjs="http://svgjs.com/svgjs" width="38" height="29" viewBox="0 0 38 29"><title>Shape 4 copy 11</title><desc>Created with Avocode.</desc><defs id="SvgjsDefs1001"></defs><path id="SvgjsPath1007" d="M1251.53 160.01C1250.6 160.088 1249.92 160.91199999999998 1249.99 161.85C1250.07 162.78799999999998 1250.88 163.48399999999998 1251.81 163.406C1251.82 163.405 1251.83 163.40300000000002 1251.84 163.40300000000002L1257.49 163.40300000000002L1258.3 166.407C1258.3 166.466 1258.32 166.525 1258.33 166.583C1258.34 166.692 1258.37 166.798 1258.3999999999999 166.902C1258.4199999999998 166.974 1258.4399999999998 167.04399999999998 1258.4699999999998 167.113L1262.0599999999997 180.97L1262.3699999999997 182.243L1282.4299999999996 182.243L1282.7399999999996 180.97L1283.2299999999996 179.061L1265.0899999999995 179.061C1264.8699999999994 178.30700000000002 1264.7499999999995 177.934 1264.4999999999995 176.834L1283.8199999999995 176.834L1286.4399999999994 166.83100000000002L1286.9999999999993 164.675L1261.2899999999993 164.675L1260.4199999999994 161.28L1260.1099999999994 160.00900000000001L1251.8399999999995 160.00900000000001C1251.7799999999995 160.00500000000002 1251.7299999999996 160.00500000000002 1251.6699999999994 160.00900000000001C1251.6199999999994 160.00600000000003 1251.5699999999995 160.00600000000003 1251.5299999999993 160.00900000000001ZM1267.26 183.869C1265.86 183.869 1264.75 185.03 1264.75 186.45C1264.75 187.86999999999998 1265.86 188.99599999999998 1267.26 188.99599999999998C1268.66 188.99599999999998 1269.8 187.86999999999998 1269.8 186.45C1269.8 185.03 1268.6599999999999 183.869 1267.26 183.869ZM1279.46 186.45C1279.46 187.86999999999998 1278.32 188.99599999999998 1276.92 188.99599999999998C1275.52 188.99599999999998 1274.3700000000001 187.86999999999998 1274.3700000000001 186.45C1274.3700000000001 185.03 1275.5200000000002 183.869 1276.92 183.869C1278.3200000000002 183.869 1279.46 185.03 1279.46 186.45Z " fill="#2f3336" fill-opacity="1" transform="matrix(1,0,0,1,-1249,-160)"></path></svg>