<?xml version="1.0" encoding="utf-8"?>
<!-- Generator: Adobe Illustrator 21.0.2, SVG Export Plug-In . SVG Version: 6.00 Build 0)  -->
<svg version="1.1" id="соц_сети_1_" xmlns="http://www.w3.org/2000/svg" xmlns:xlink="http://www.w3.org/1999/xlink" x="0px"
	 y="0px" viewBox="0 0 35 35" style="enable-background:new 0 0 35 35;" xml:space="preserve">
<style type="text/css">
	.st0{fill-rule:evenodd;clip-rule:evenodd;fill:#CE0085;}
	.st1{fill-rule:evenodd;clip-rule:evenodd;fill:#FFFFFF;}
</style>
<g id="Прямоугольник_3_копия_2">
	<g>
		<path class="st0" d="M32,0H3C1.3,0,0,1.3,0,3v29c0,1.7,1.3,3,3,3h29c1.7,0,3-1.3,3-3V3C35,1.3,33.7,0,32,0z"/>
	</g>
</g>
<g id="instagram">
	<g>
		<path class="st1" d="M21.8,8h-8.5C10.4,8,8,10.4,8,13.2v8.5c0,2.9,2.4,5.2,5.2,5.2h8.5c2.9,0,5.2-2.4,5.2-5.2v-8.5
			C27,10.4,24.6,8,21.8,8z M21.8,25.3h-8.5c-2,0-3.6-1.6-3.6-3.6v-8.5c0-2,1.6-3.6,3.6-3.6h8.5c2,0,3.6,1.6,3.6,3.6v8.5h0
			C25.3,23.7,23.7,25.3,21.8,25.3z M17.5,12.6c-2.7,0-4.9,2.2-4.9,4.9s2.2,4.9,4.9,4.9c2.7,0,4.9-2.2,4.9-4.9S20.2,12.6,17.5,12.6z
			 M17.5,20.7c-1.8,0-3.2-1.4-3.2-3.2c0-1.8,1.4-3.2,3.2-3.2c1.8,0,3.2,1.4,3.2,3.2C20.7,19.3,19.3,20.7,17.5,20.7z M22.6,11.2
			c-0.3,0-0.6,0.1-0.9,0.4c-0.2,0.2-0.4,0.5-0.4,0.9c0,0.3,0.1,0.6,0.4,0.9c0.2,0.2,0.5,0.4,0.9,0.4c0.3,0,0.6-0.1,0.9-0.4
			c0.2-0.2,0.4-0.5,0.4-0.9c0-0.3-0.1-0.6-0.4-0.9C23.2,11.3,22.9,11.2,22.6,11.2z"/>
	</g>
</g>
</svg>
