<?xml version="1.0" encoding="utf-8"?>
<!-- Generator: Adobe Illustrator 21.0.2, SVG Export Plug-In . SVG Version: 6.00 Build 0)  -->
<svg version="1.1" id="соц_сети_1_" xmlns="http://www.w3.org/2000/svg" xmlns:xlink="http://www.w3.org/1999/xlink" x="0px"
	 y="0px" viewBox="0 0 35 35" style="enable-background:new 0 0 35 35;" xml:space="preserve">
<style type="text/css">
	.st0{fill-rule:evenodd;clip-rule:evenodd;fill:#F42521;}
	.st1{fill:#FFFFFF;}
	.st2{fill:#F42521;}
</style>
<g id="Прямоугольник_3_копия_4">
	<g>
		<path class="st0" d="M32,0H3C1.3,0,0,1.3,0,3v29c0,1.7,1.3,3,3,3h29c1.7,0,3-1.3,3-3V3C35,1.3,33.7,0,32,0z"/>
	</g>
</g>
<g id="Векторный_смарт-объект_xA0_Изображение_1_">
</g>
<path class="st1" d="M26.8,11.8c-0.6-1-1.2-1.2-2.4-1.2c-1.2-0.1-4.3-0.1-7-0.1c-2.7,0-5.7,0-7,0.1c-1.2,0.1-1.8,0.3-2.4,1.2
	c-0.6,1-0.9,2.7-0.9,5.7c0,0,0,0,0,0c0,0,0,0,0,0v0c0,3,0.3,4.7,0.9,5.7c0.6,1,1.2,1.2,2.4,1.2c1.2,0.1,4.3,0.1,7,0.1
	c2.7,0,5.7,0,7-0.1c1.2-0.1,1.8-0.3,2.4-1.2c0.6-1,0.9-2.7,0.9-5.7c0,0,0,0,0,0c0,0,0,0,0,0C27.7,14.5,27.4,12.8,26.8,11.8z"/>
<polygon class="st2" points="14.8,21.3 14.8,13.7 21.2,17.5 "/>
</svg>
