<?xml version="1.0" encoding="utf-8"?>
<!-- Generator: Adobe Illustrator 21.0.2, SVG Export Plug-In . SVG Version: 6.00 Build 0)  -->
<svg version="1.1" id="соц_сети_1_" xmlns="http://www.w3.org/2000/svg" xmlns:xlink="http://www.w3.org/1999/xlink" x="0px"
	 y="0px" viewBox="0 0 35 35" style="enable-background:new 0 0 35 35;" xml:space="preserve">
<style type="text/css">
	.st0{fill-rule:evenodd;clip-rule:evenodd;fill:#4A76A8;}
	.st1{fill-rule:evenodd;clip-rule:evenodd;fill:#FFFFFF;}
</style>
<g id="Прямоугольник_3">
	<g>
		<path class="st0" d="M32,0H3C1.3,0,0,1.3,0,3v29c0,1.7,1.3,3,3,3h29c1.7,0,3-1.3,3-3V3C35,1.3,33.7,0,32,0z"/>
	</g>
</g>
<g id="Shape_1">
	<g>
		<path class="st1" d="M26.7,21.1c-0.6-0.7-1.3-1.4-1.9-2c-0.6-0.6-0.6-1-0.2-1.6c0.5-0.8,1.1-1.5,1.6-2.2c0.5-0.7,1-1.4,1.2-2.3
			c0.2-0.5,0-0.8-0.5-0.9c-0.1,0-0.2,0-0.3,0l-3.1,0c-0.4,0-0.6,0.2-0.7,0.5c-0.2,0.5-0.4,1-0.6,1.4c-0.5,1.1-1,2.1-1.8,2.9
			c-0.2,0.2-0.4,0.4-0.6,0.3c-0.4-0.1-0.5-0.8-0.5-1l0-3.8c-0.1-0.5-0.2-0.8-0.7-0.9h-3.2c-0.4,0-0.6,0.2-0.9,0.5
			c-0.1,0.2-0.2,0.3,0.1,0.3c0.5,0.1,0.8,0.5,0.9,1c0.1,0.9,0.1,1.8,0,2.7c0,0.3-0.1,0.5-0.2,0.8c-0.2,0.4-0.4,0.5-0.7,0.2
			c-0.3-0.2-0.5-0.5-0.7-0.8c-0.8-1.2-1.4-2.4-1.9-3.7c-0.1-0.4-0.4-0.6-0.8-0.6c-0.9,0-1.9,0-2.8,0c-0.6,0-0.7,0.3-0.5,0.8
			c1,2.4,2.1,4.7,3.6,6.8c0.8,1.1,1.6,2,2.7,2.7c1.3,0.8,2.6,1,4.1,0.9c0.7,0,0.9-0.2,0.9-0.9c0-0.5,0.1-1,0.3-1.4
			c0.2-0.4,0.6-0.5,1-0.2c0.2,0.1,0.4,0.3,0.5,0.5c0.4,0.4,0.7,0.9,1.1,1.3c0.5,0.5,1.1,0.8,1.8,0.8l2.9,0c0.5,0,0.7-0.6,0.4-1.2
			C27.2,21.8,26.9,21.5,26.7,21.1z"/>
	</g>
</g>
</svg>
