<?xml version="1.0" encoding="utf-8"?>
<!-- Generator: Adobe Illustrator 21.0.2, SVG Export Plug-In . SVG Version: 6.00 Build 0)  -->
<svg version="1.1" id="соц_сети_1_" xmlns="http://www.w3.org/2000/svg" xmlns:xlink="http://www.w3.org/1999/xlink" x="0px"
	 y="0px" viewBox="0 0 35 35" style="enable-background:new 0 0 35 35;" xml:space="preserve">
<style type="text/css">
	.st0{fill-rule:evenodd;clip-rule:evenodd;fill:#4267B2;}
	.st1{fill-rule:evenodd;clip-rule:evenodd;fill:#FFFFFF;}
</style>
<g id="Прямоугольник_3_копия">
	<g>
		<path class="st0" d="M32,0H3C1.3,0,0,1.3,0,3v29c0,1.7,1.3,3,3,3h29c1.7,0,3-1.3,3-3V3C35,1.3,33.7,0,32,0z"/>
	</g>
</g>
<g id="Forma_1">
	<g>
		<path class="st1" d="M19.8,12.2H22V9h-3c-4.2,0-4.1,3-4.1,3.5c0,0.5,0,2.5,0,2.5H13v3H15v9h4v-9h2.7c0,0,0.3-1.5,0.4-3
			c-0.3,0-3,0-3,0s0-1.8,0-2.1C19,12.6,19.4,12.2,19.8,12.2z"/>
	</g>
</g>
</svg>
