<?xml version="1.0" encoding="utf-8"?>
<!-- Generator: Adobe Illustrator 21.0.2, SVG Export Plug-In . SVG Version: 6.00 Build 0)  -->
<svg version="1.1" id="соц_сети_1_" xmlns="http://www.w3.org/2000/svg" xmlns:xlink="http://www.w3.org/1999/xlink" x="0px"
	 y="0px" viewBox="0 0 35 35" style="enable-background:new 0 0 35 35;" xml:space="preserve">
<style type="text/css">
	.st0{fill-rule:evenodd;clip-rule:evenodd;fill:#EE8208;}
	.st1{fill-rule:evenodd;clip-rule:evenodd;fill:#FFFFFF;}
</style>
<g id="Прямоугольник_3_копия_3">
	<g>
		<path class="st0" d="M32,0H3C1.3,0,0,1.3,0,3v29c0,1.7,1.3,3,3,3h29c1.7,0,3-1.3,3-3V3C35,1.3,33.7,0,32,0z"/>
	</g>
</g>
<g id="Forma_1">
	<g>
		<path class="st1" d="M22.7,19.5c0.4-0.4,0.4-0.9,0.1-1.4c-0.3-0.4-0.8-0.6-1.3-0.5c-0.3,0.1-0.5,0.2-0.7,0.4
			c-2.2,1.4-5.3,1.4-7.5-0.1c-0.1-0.1-0.2-0.1-0.3-0.2c-0.6-0.3-1.2-0.1-1.6,0.3c-0.4,0.6-0.4,1.1,0.2,1.6c0.1,0.1,0.3,0.2,0.4,0.3
			c1.2,0.9,2.6,1.3,4.1,1.4c-0.1,0.1-0.2,0.2-0.3,0.3c-1.1,1.1-2.3,2.2-3.4,3.2c-0.2,0.2-0.4,0.5-0.4,0.8c0,0.5,0.3,1,0.8,1.2
			c0.5,0.2,0.9,0.1,1.3-0.2c0.9-0.8,1.8-1.7,2.6-2.5c0.2-0.2,0.3-0.3,0.6,0c0.8,0.8,1.7,1.7,2.6,2.5c0.2,0.2,0.5,0.4,0.8,0.4
			c0.5,0,1-0.3,1.3-0.8c0.2-0.4,0.1-0.9-0.3-1.3c-1.1-1.1-2.3-2.2-3.4-3.3c-0.1-0.1-0.1-0.1-0.3-0.3c0.8-0.1,1.7-0.2,2.5-0.5
			C21.3,20.6,22.1,20.1,22.7,19.5z M17,17.6c2.8,0,5.1-2.1,5.1-4.7c0-2.7-2.2-4.9-5-4.9c-2.8,0-5,2.1-5.1,4.8
			C12,15.4,14.2,17.6,17,17.6z M17,10.5c1.4,0,2.5,1,2.5,2.3c0,1.3-1.1,2.4-2.5,2.4c-1.4,0-2.5-1-2.5-2.3
			C14.5,11.5,15.6,10.5,17,10.5z"/>
	</g>
</g>
</svg>
