<svg width="219" height="17" viewBox="0 0 219 17" fill="none" xmlns="http://www.w3.org/2000/svg">
<path d="M18.9453 16.0244H15.2832V3.82959H0V0.729004H34.1797V3.79297H18.9453V16.0244ZM70.9546 16.0244H41.6577V0.741211H70.9546V3.80518H44.7583V6.86914H70.9546V9.93311H44.7583V12.9849H70.9546V16.0244ZM107.766 16.0244H82.0825C79.6818 16.0244 78.4814 14.7874 78.4814 12.3135V4.39111C78.4814 1.98226 79.6818 0.777832 82.0825 0.777832H107.766V3.80518H82.7661C81.9604 3.80518 81.5576 4.1958 81.5576 4.97705V11.752C81.5576 12.582 81.9442 12.9971 82.7173 12.9971H107.766V16.0244ZM144.578 16.0244H141.538V9.9209H118.32L118.308 16.0244H115.293V0.777832H118.308V6.88135H141.538V0.777832H144.578V16.0244ZM178.301 15.9878H181.389V0.777832H178.313L178.325 12.4111L155.144 0.741211H152.08L152.117 16.0244H155.168V4.26904L178.301 15.9878ZM215.125 11.7764V5.09912C215.125 4.24463 214.718 3.81738 213.904 3.81738H193.176C192.362 3.81738 191.956 4.21615 191.956 5.01367V11.7397C191.956 12.5698 192.362 12.9849 193.176 12.9849H213.928C214.726 12.9849 215.125 12.582 215.125 11.7764ZM192.529 16.0244C190.088 16.0244 188.867 14.7996 188.867 12.3501V4.43994C188.867 1.99854 190.076 0.777832 192.493 0.777832H214.453C216.935 0.777832 218.176 2.02702 218.176 4.52539V12.4233C218.176 14.7996 216.976 15.9878 214.575 15.9878L192.529 16.0244Z" fill="#333333"/>
</svg>
